# Blender 4.4.0
# www.blender.org
mtllib medium_base.mtl
o Cube.001
v 1.471000 0.100000 -1.030000
v 1.471000 -0.000000 -1.030000
v 1.471000 0.100000 1.030000
v 1.471000 0.000000 1.030000
v -1.471000 0.100000 -1.030000
v -1.471000 -0.000000 -1.030000
v -1.471000 0.100000 1.030000
v -1.471000 0.000000 1.030000
v 0.825000 0.100000 -0.000000
v -0.825000 0.100000 -0.000000
v -1.707000 0.000000 0.567000
v 1.392000 0.100000 0.567000
v -1.392000 0.100000 -0.567000
v 1.707000 -0.000000 -0.567000
v -1.707000 -0.000000 -0.567000
v 1.392000 0.100000 -0.567000
v -1.392000 0.100000 0.567000
v 1.707000 0.000000 0.567000
v -1.601000 0.000000 0.776000
v 1.601000 0.100000 0.776000
v -1.601000 0.100000 -0.776000
v 1.601000 -0.000000 -0.776000
v -1.740000 -0.000000 -0.380000
v 1.205000 0.100000 -0.380000
v -1.205000 0.100000 0.380000
v 1.740000 0.000000 0.380000
v 0.825000 0.050000 -0.000000
v -0.825000 0.050000 -0.000000
v -1.740000 0.000000 0.380000
v 1.205000 0.100000 0.380000
v -1.205000 0.100000 -0.380000
v 1.740000 -0.000000 -0.380000
v -1.601000 -0.000000 -0.776000
v 1.601000 0.100000 -0.776000
v -1.601000 0.100000 0.776000
v 1.601000 0.000000 0.776000
v -1.392000 0.050000 0.567000
v 1.392000 0.050000 -0.567000
v 1.392000 0.050000 0.567000
v -1.392000 0.050000 -0.567000
v -1.740000 0.050000 -0.380000
v 1.740000 0.050000 0.380000
v 1.601000 0.050000 -0.776000
v -1.601000 0.050000 0.776000
v -1.740000 0.050000 0.380000
v 1.740000 0.050000 -0.380000
v 1.601000 0.050000 0.776000
v -1.601000 0.050000 -0.776000
v 1.205000 0.050000 0.380000
v 1.707000 0.050000 0.567000
v 1.707000 0.050000 -0.567000
v 1.205000 0.050000 -0.380000
v -1.205000 0.050000 -0.380000
v -1.707000 0.050000 -0.567000
v -1.707000 0.050000 0.567000
v -1.205000 0.050000 0.380000
v 1.574607 -0.000000 -0.097545
v 1.603060 -0.000000 -0.191342
v 1.740000 -0.000000 -0.376987
v 1.711447 -0.000000 -0.353553
v 1.649265 -0.000000 -0.277785
v 1.565000 0.000000 0.000000
v 1.471000 0.000000 0.000000
v 1.603060 0.000000 0.191342
v 1.574607 0.000000 0.097545
v 1.711447 0.000000 0.353553
v 1.740000 0.000000 0.376987
v 1.649265 0.000000 0.277785
v 1.740000 0.050000 0.376987
v 1.740000 0.050000 -0.376987
v 1.603060 0.050000 0.191342
v 1.711447 0.050000 0.353553
v 1.649265 0.050000 0.277785
v 1.471000 0.000000 0.380000
v 1.565000 0.050000 -0.000000
v 1.574607 0.050000 0.097545
v 1.574607 0.050000 -0.097545
v 1.603060 0.050000 -0.191342
v 1.711447 0.050000 -0.353553
v 1.649265 0.050000 -0.277785
v 1.471000 0.000000 0.567000
v -1.649265 -0.000000 -0.277785
v -1.740000 -0.000000 -0.376987
v -1.711447 -0.000000 -0.353553
v -1.574607 -0.000000 -0.097545
v -1.603060 -0.000000 -0.191342
v -1.740000 0.050000 -0.376987
v -1.740000 0.000000 0.376987
v -1.711447 0.000000 0.353553
v -1.649265 0.000000 0.277785
v -1.574607 0.000000 0.097545
v -1.603060 0.000000 0.191342
v -1.565000 0.000000 0.000000
v -1.740000 0.050000 0.376987
v -1.711447 0.050000 -0.353553
v -1.603060 0.050000 -0.191342
v -1.649265 0.050000 -0.277785
v -1.574607 0.050000 -0.097545
v 1.471000 0.000000 0.776000
v -1.711447 0.050000 0.353553
v -1.649265 0.050000 0.277785
v -1.565000 0.050000 -0.000000
v -1.603060 0.050000 0.191342
v -1.574607 0.050000 0.097545
v -0.353553 0.100000 0.936447
v -0.191342 0.100000 0.828060
v -0.277785 0.100000 0.874265
v -0.097545 0.100000 0.799607
v 0.097545 0.100000 0.799607
v 0.000000 0.100000 0.790000
v 0.277785 0.100000 0.874265
v 0.191342 0.100000 0.828060
v -0.425241 0.100000 1.030000
v -0.415735 0.100000 1.012215
v 0.353553 0.100000 0.936447
v 0.415735 0.100000 1.012215
v 0.425241 0.100000 1.030000
v -0.277785 0.000000 0.874265
v -0.191342 0.000000 0.828060
v 0.000000 0.000000 0.790000
v -0.097545 0.000000 0.799607
v 0.191342 0.000000 0.828060
v 0.353553 0.000000 0.936447
v 0.277785 0.000000 0.874265
v 0.097545 0.000000 0.799607
v -0.415735 0.000000 1.012215
v -0.425241 0.000000 1.030000
v -0.353553 0.000000 0.936447
v 0.415735 0.000000 1.012215
v 0.425241 0.000000 1.030000
v -0.425241 -0.000000 -1.030000
v -0.415735 -0.000000 -1.012215
v 0.353553 -0.000000 -0.936447
v 0.425241 -0.000000 -1.030000
v 0.415735 -0.000000 -1.012215
v -0.353553 -0.000000 -0.936447
v -0.191342 -0.000000 -0.828060
v -0.097545 -0.000000 -0.799607
v -0.277785 -0.000000 -0.874265
v 0.097545 -0.000000 -0.799607
v 0.000000 -0.000000 -0.790000
v 0.277785 -0.000000 -0.874265
v 0.191342 -0.000000 -0.828060
v -0.353553 0.100000 -0.936447
v -0.415735 0.100000 -1.012215
v -0.425241 0.100000 -1.030000
v 0.415735 0.100000 -1.012215
v 0.425241 0.100000 -1.030000
v -0.191342 0.100000 -0.828060
v -0.277785 0.100000 -0.874265
v 0.000000 0.100000 -0.790000
v -0.097545 0.100000 -0.799607
v 0.191342 0.100000 -0.828060
v 0.353553 0.100000 -0.936447
v 0.097545 0.100000 -0.799607
v 0.277785 0.100000 -0.874265
v 1.471000 -0.000000 -0.380000
v 1.471000 -0.000000 -0.567000
v 1.471000 -0.000000 -0.776000
v -1.471000 0.000000 0.776000
v -1.471000 0.000000 0.567000
v -1.471000 0.000000 0.380000
v -1.471000 0.000000 0.000000
v -1.471000 -0.000000 -0.380000
v -1.471000 -0.000000 -0.567000
v -1.471000 -0.000000 -0.776000
v -0.425241 -0.000000 -0.776000
v -0.425241 -0.000000 -0.567000
v -0.425241 -0.000000 -0.380000
v -0.425241 0.000000 0.000000
v -0.425241 0.000000 0.380000
v -0.425241 0.000000 0.567000
v -0.425241 0.000000 0.776000
v 0.425241 -0.000000 -0.776000
v 0.425241 -0.000000 -0.567000
v 0.425241 -0.000000 -0.380000
v 0.425241 0.000000 0.000000
v 0.425241 0.000000 0.380000
v 0.425241 0.000000 0.567000
v 0.425241 0.000000 0.776000
v 0.425241 0.100000 -0.776000
v 0.425241 0.100000 -0.567000
v 0.425241 0.100000 -0.380000
v 0.425241 0.100000 -0.000000
v 0.425241 0.100000 0.380000
v 0.425241 0.100000 0.567000
v 0.425241 0.100000 0.776000
v -0.425241 0.100000 -0.776000
v -0.425241 0.100000 -0.567000
v -0.425241 0.100000 -0.380000
v -0.425241 0.100000 -0.000000
v -0.425241 0.100000 0.380000
v -0.425241 0.100000 0.567000
v -0.425241 0.100000 0.776000
vn -0.0000 1.0000 -0.0000
vn 0.8916 -0.0000 -0.4528
vn 0.8910 -0.0000 -0.4540
vn 0.8902 -0.0000 -0.4556
vn -0.0000 -1.0000 -0.0000
vn -0.8916 -0.0000 0.4528
vn -0.8910 -0.0000 0.4540
vn -0.8902 -0.0000 0.4556
vn -0.8916 -0.0000 -0.4528
vn -0.8902 -0.0000 -0.4556
vn 0.7071 -0.0000 0.7071
vn -0.7071 -0.0000 -0.7071
vn 0.7071 -0.0000 -0.7071
vn -0.7071 -0.0000 0.7071
vn -0.9848 -0.0000 -0.1738
vn -1.0000 -0.0000 -0.0000
vn 0.9848 -0.0000 0.1738
vn 1.0000 -0.0000 -0.0000
vn 0.8919 -0.0000 -0.4523
vn -0.8919 -0.0000 0.4523
vn 0.8916 -0.0000 0.4528
vn 0.8902 -0.0000 0.4556
vn -0.9848 -0.0000 0.1738
vn 0.9848 -0.0000 -0.1738
vn -0.0000 -0.0000 1.0000
vn 0.8919 -0.0000 0.4523
vn 0.8910 -0.0000 0.4540
vn -0.0000 -0.0000 -1.0000
vn -0.8919 -0.0000 -0.4523
vn -0.8910 -0.0000 -0.4540
vn 0.6344 -0.0000 -0.7730
vn 0.7730 -0.0000 -0.6344
vn 0.8819 -0.0000 -0.4714
vn 0.9569 -0.0000 -0.2903
vn 0.9952 -0.0000 -0.0980
vn 0.9952 -0.0000 0.0980
vn 0.9569 -0.0000 0.2903
vn 0.8819 -0.0000 0.4714
vn 0.7730 -0.0000 0.6344
vn 0.6344 -0.0000 0.7730
vn -0.6344 -0.0000 0.7730
vn -0.7730 -0.0000 0.6344
vn -0.8819 -0.0000 0.4714
vn -0.9569 -0.0000 0.2903
vn -0.7139 -0.6857 0.1420
vn -0.9808 -0.0000 0.1951
vn -0.6852 -0.7200 0.1099
vn -0.9978 -0.0468 -0.0468
vn -0.9952 -0.0000 -0.0980
vn -0.9569 -0.0000 -0.2903
vn -0.8819 -0.0000 -0.4714
vn -0.7730 -0.0000 -0.6344
vn -0.6344 -0.0000 -0.7730
vn -0.0980 -0.0000 0.9952
vn -0.2903 -0.0000 0.9569
vn -0.4714 -0.0000 0.8819
vn 0.4714 -0.0000 0.8819
vn 0.2903 -0.0000 0.9569
vn 0.0980 -0.0000 0.9952
vn -0.4714 -0.0000 -0.8819
vn -0.2903 -0.0000 -0.9569
vn -0.0980 -0.0000 -0.9952
vn 0.0980 -0.0000 -0.9952
vn 0.2903 -0.0000 -0.9569
vn 0.4714 -0.0000 -0.8819
vn -0.0207 -0.9998 0.0033
vn -0.2732 -0.9610 0.0438
vn -0.6712 -0.7334 0.1076
vn -0.4671 -0.8810 0.0749
vt 0.713865 0.750000
vt 0.625000 0.750000
vt 0.625000 0.718750
vt 0.716799 0.718750
vt 0.500000 0.531250
vt 0.375000 0.531250
vt 0.375000 0.500000
vt 0.375000 0.750000
vt 0.364850 0.718750
vt 0.375000 0.718750
vt 0.500000 0.031250
vt 0.375000 0.031250
vt 0.125000 0.750000
vt 0.500000 0.218750
vt 0.625000 0.218750
vt 0.875000 0.500000
vt 0.500000 0.593750
vt 0.625000 0.593750
vt 0.625000 0.625000
vt 0.500000 0.625000
vt 0.355675 0.593750
vt 0.375000 0.593750
vt 0.375000 0.593998
vt 0.500000 0.093750
vt 0.625000 0.093750
vt 0.625000 0.125000
vt 0.500000 0.125000
vt 0.794112 0.593750
vt 0.875000 0.593750
vt 0.875000 0.625000
vt 0.814430 0.625000
vt 0.783201 0.531250
vt 0.875000 0.531250
vt 0.875000 0.562500
vt 0.788186 0.562500
vt 0.625000 0.031250
vt 0.625000 0.062500
vt 0.500000 0.062500
vt 0.364850 0.531250
vt 0.375000 0.562500
vt 0.357718 0.562500
vt 0.625000 0.531250
vt 0.625000 0.562500
vt 0.500000 0.562500
vt 0.500000 0.656250
vt 0.625000 0.656250
vt 0.625000 0.687500
vt 0.500000 0.687500
vt 0.355675 0.656250
vt 0.375000 0.656250
vt 0.375000 0.687500
vt 0.357718 0.687500
vt 0.500000 0.156250
vt 0.625000 0.156250
vt 0.625000 0.187500
vt 0.500000 0.187500
vt 0.794112 0.656250
vt 0.875000 0.656250
vt 0.875000 0.687500
vt 0.788186 0.687500
vt 0.375000 0.156250
vt 0.375000 0.187500
vt 0.500000 0.156002
vt 0.375000 0.156002
vt 0.144325 0.656250
vt 0.125000 0.656250
vt 0.125000 0.656002
vt 0.375000 0.656002
vt 0.500000 0.656002
vt 0.375000 0.062500
vt 0.500000 0.718750
vt 0.713865 0.500000
vt 0.716799 0.531250
vt 0.625000 0.500000
vt 0.375000 0.093750
vt 0.500000 0.093998
vt 0.375000 0.093998
vt 0.500000 0.593998
vt 0.875000 0.750000
vt 0.213865 0.750000
vt 0.786135 0.750000
vt 0.286135 0.750000
vt 0.286135 0.500000
vt 0.125000 0.500000
vt 0.786135 0.500000
vt 0.213865 0.500000
vt 0.375000 0.218750
vt 0.875000 0.718750
vt 0.783201 0.718750
vt 0.386777 0.775000
vt 0.386777 0.750000
vt 0.375000 0.775000
vt 0.343750 0.750000
vt 0.343750 0.775000
vt 0.312500 0.750000
vt 0.312500 0.775000
vt 0.281250 0.750000
vt 0.281250 0.775000
vt 0.250000 0.750000
vt 0.250000 0.775000
vt 0.218750 0.750000
vt 0.218750 0.775000
vt 0.187500 0.750000
vt 0.187500 0.775000
vt 0.156250 0.750000
vt 0.156250 0.775000
vt 0.125000 0.775000
vt 0.113223 0.750000
vt 0.113223 0.775000
vt 0.886777 0.750000
vt 0.875000 0.775000
vt 0.886777 0.775000
vt 0.843750 0.750000
vt 0.843750 0.775000
vt 0.812500 0.750000
vt 0.812500 0.775000
vt 0.781250 0.750000
vt 0.781250 0.775000
vt 0.500000 0.633022
vt 0.500000 0.133022
vt 0.136882 0.616978
vt 0.750000 0.750000
vt 0.718750 0.750000
vt 0.718750 0.775000
vt 0.750000 0.775000
vt 0.687500 0.750000
vt 0.687500 0.775000
vt 0.656250 0.750000
vt 0.656250 0.775000
vt 0.625000 0.775000
vt 0.613223 0.750000
vt 0.613223 0.775000
vt 0.968750 0.750000
vt 0.968750 0.800000
vt 1.000000 0.800000
vt 1.000000 0.750000
vt 0.937500 0.750000
vt 0.937500 0.800000
vt 0.906250 0.750000
vt 0.906250 0.800000
vt 0.875000 0.800000
vt 0.843750 0.800000
vt 0.837321 0.800000
vt 0.837321 0.750000
vt 0.162679 0.750000
vt 0.156250 0.800000
vt 0.162679 0.800000
vt 0.125000 0.800000
vt 0.093750 0.750000
vt 0.093750 0.800000
vt 0.062500 0.750000
vt 0.062500 0.800000
vt 0.031250 0.750000
vt 0.031250 0.800000
vt 0.000000 0.750000
vt 0.000000 0.800000
vt 0.662680 0.750000
vt 0.656250 0.800000
vt 0.662679 0.800000
vt 0.625000 0.800000
vt 0.593750 0.750000
vt 0.593750 0.800000
vt 0.562500 0.750000
vt 0.562500 0.800000
vt 0.531250 0.750000
vt 0.531250 0.800000
vt 0.500000 0.750000
vt 0.500000 0.800000
vt 0.468750 0.750000
vt 0.468750 0.800000
vt 0.437500 0.750000
vt 0.437500 0.800000
vt 0.406250 0.750000
vt 0.406250 0.800000
vt 0.375000 0.800000
vt 0.343750 0.800000
vt 0.337321 0.800000
vt 0.337321 0.750000
vt 0.500000 0.616978
vt 0.500000 0.609265
vt 0.500000 0.602156
vt 0.500000 0.595925
vt 0.500000 0.640735
vt 0.500000 0.647844
vt 0.500000 0.654075
vt 0.500000 0.116978
vt 0.500000 0.140735
vt 0.500000 0.147844
vt 0.500000 0.154075
vt 0.500000 0.109265
vt 0.500000 0.102156
vt 0.500000 0.095925
vt 0.283201 0.531250
vt 0.281139 0.562500
vt 0.280549 0.593750
vt 0.281139 0.687500
vt 0.283201 0.718750
vt 0.280549 0.656250
vt 0.355675 0.625000
vt 0.362428 0.625000
vt 0.280549 0.625000
vt 0.125000 0.718750
vt 0.135150 0.718750
vt 0.135150 0.531250
vt 0.125000 0.531250
vt 0.372949 0.654075
vt 0.368482 0.647844
vt 0.365162 0.640735
vt 0.363118 0.633022
vt 0.363118 0.616978
vt 0.365162 0.609265
vt 0.368482 0.602156
vt 0.372949 0.595925
vt 0.142282 0.562500
vt 0.125000 0.562500
vt 0.144325 0.593750
vt 0.125000 0.593750
vt 0.137572 0.625000
vt 0.144325 0.625000
vt 0.219451 0.656250
vt 0.219451 0.625000
vt 0.142282 0.687500
vt 0.125000 0.687500
vt 0.216799 0.718750
vt 0.216799 0.531250
vt 0.127051 0.654075
vt 0.131518 0.647844
vt 0.134838 0.640735
vt 0.136882 0.633022
vt 0.134838 0.609265
vt 0.131518 0.602156
vt 0.125000 0.593998
vt 0.127051 0.595925
vt 0.218860 0.687500
vt 0.219451 0.593750
vt 0.218860 0.562500
vt 0.214868 0.502188
vt 0.214868 0.747812
vt 0.220851 0.511510
vt 0.227576 0.519160
vt 0.234796 0.524845
vt 0.242323 0.528346
vt 0.250000 0.529528
vt 0.257677 0.528346
vt 0.265204 0.524845
vt 0.272424 0.519160
vt 0.279149 0.511510
vt 0.285132 0.502188
vt 0.220851 0.738490
vt 0.227576 0.730840
vt 0.234796 0.725155
vt 0.242323 0.721654
vt 0.250000 0.720472
vt 0.257677 0.721654
vt 0.265204 0.725155
vt 0.272424 0.730840
vt 0.279149 0.738490
vt 0.285132 0.747812
vt 0.711814 0.687500
vt 0.705888 0.656250
vt 0.685570 0.625000
vt 0.705888 0.593750
vt 0.711814 0.562500
vt 0.785132 0.502188
vt 0.785132 0.747812
vt 0.779149 0.738490
vt 0.772424 0.730840
vt 0.765204 0.725155
vt 0.757677 0.721654
vt 0.750000 0.720472
vt 0.742323 0.721654
vt 0.734796 0.725155
vt 0.727576 0.730840
vt 0.720851 0.738490
vt 0.714867 0.747812
vt 0.779149 0.511510
vt 0.772424 0.519160
vt 0.765204 0.524845
vt 0.757677 0.528346
vt 0.750000 0.529528
vt 0.742323 0.528346
vt 0.734796 0.524845
vt 0.727576 0.519160
vt 0.720851 0.511510
vt 0.714868 0.502188
s 1
usemtl Material.001
f 117/1/1 3/2/1 20/3/1 187/4/1
f 43/5/2 22/6/3 2/7/4
f 4/8/5 99/9/5 36/10/5
f 44/11/6 19/12/7 8/13/8
f 48/14/9 21/15/10 5/16/10
f 52/17/11 24/18/11 9/19/11 27/20/11
f 157/21/5 32/22/5 59/23/5
f 56/24/12 25/25/12 10/26/12 28/27/12
f 190/28/1 31/29/1 10/30/1 191/31/1
f 188/32/1 21/33/1 13/34/1 189/35/1
f 44/11/12 35/36/12 17/37/12 37/38/12
f 159/39/5 22/6/5 14/40/5 158/41/5
f 43/5/11 34/42/11 16/43/11 38/44/11
f 49/45/13 30/46/13 12/47/13 39/48/13
f 74/49/5 26/50/5 18/51/5 81/52/5
f 53/53/14 31/54/14 13/55/14 40/56/14
f 192/57/1 25/58/1 17/59/1 193/60/1
f 191/31/1 10/30/1 25/58/1 192/57/1
f 23/61/15 41/53/15 54/56/15 15/62/15
f 87/63/16 41/53/16 23/61/16 83/64/16
f 28/27/14 10/26/14 31/54/14 53/53/14
f 162/65/5 29/66/5 88/67/5
f 26/50/17 42/45/17 50/48/17 18/51/17
f 42/45/18 26/50/18 67/68/18 69/69/18
f 27/20/13 9/19/13 30/46/13 49/45/13
f 22/6/3 43/5/2 51/44/19 14/40/19
f 2/7/5 22/6/5 159/39/5
f 19/12/7 44/11/6 55/38/20 11/70/20
f 47/71/21 20/3/22 3/2/22
f 148/72/1 181/73/1 34/42/1 1/74/1
f 189/35/1 13/34/1 31/29/1 190/28/1
f 29/75/16 45/24/16 94/76/16 88/77/16
f 11/70/23 55/38/23 45/24/23 29/75/23
f 37/38/12 17/37/12 25/25/12 56/24/12
f 158/41/5 14/40/5 32/22/5 157/21/5
f 59/23/18 32/22/18 46/17/18 70/78/18
f 14/40/24 51/44/24 46/17/24 32/22/24
f 38/44/11 16/43/11 24/18/11 52/17/11
f 7/79/25 8/13/25 127/80/25 113/81/25
f 130/82/25 4/8/25 3/2/25 117/1/25
f 18/51/26 50/48/26 47/71/21 36/10/27
f 39/48/13 12/47/13 20/3/13 47/71/13
f 81/52/5 18/51/5 36/10/5 99/9/5
f 148/72/28 1/74/28 2/7/28 134/83/28
f 6/84/28 5/16/28 146/85/28 131/86/28
f 15/62/29 54/56/29 48/14/9 33/87/30
f 40/56/14 13/55/14 21/15/14 48/14/14
f 193/60/1 17/59/1 35/88/1 194/89/1
f 42/45/1 49/45/1 39/48/1 50/48/1
f 75/20/1 27/20/1 49/45/1
f 51/44/1 43/5/1 38/44/1
f 75/20/1 52/17/1 27/20/1
f 52/17/1 46/17/1 51/44/1 38/44/1
f 39/48/1 47/71/1 50/48/1
f 41/53/1 53/53/1 40/56/1 54/56/1
f 102/27/1 28/27/1 53/53/1
f 55/38/1 44/11/1 37/38/1
f 102/27/1 56/24/1 28/27/1
f 56/24/1 45/24/1 55/38/1 37/38/1
f 40/56/1 48/14/1 54/56/1
f 69/90/31 67/91/31 66/8/31 72/92/31
f 72/92/32 66/8/32 68/93/32 73/94/32
f 73/94/33 68/93/33 64/95/33 71/96/33
f 71/96/34 64/95/34 65/97/34 76/98/34
f 76/98/35 65/97/35 62/99/35 75/100/35
f 75/100/36 62/99/36 57/101/36 77/102/36
f 77/102/37 57/101/37 58/103/37 78/104/37
f 78/104/38 58/103/38 61/105/38 80/106/38
f 80/106/39 61/105/39 60/13/39 79/107/39
f 79/107/40 60/13/40 59/108/40 70/109/40
f 83/110/41 84/79/41 95/111/41 87/112/41
f 84/79/42 82/113/42 97/114/42 95/111/42
f 82/113/43 86/115/43 96/116/43 97/114/43
f 86/115/44 85/117/45 98/118/46 96/116/44
f 76/119/1 75/20/1 49/45/1
f 98/120/46 85/121/45 93/122/47 102/27/48
f 93/122/47 91/123/49 104/124/49 102/125/48
f 91/123/50 92/126/50 103/127/50 104/124/50
f 92/126/51 90/128/51 101/129/51 103/127/51
f 90/128/52 89/2/52 100/130/52 101/129/52
f 89/2/53 88/131/53 94/132/53 100/130/53
f 125/133/54 109/134/54 110/135/54 120/136/54
f 122/137/55 112/138/55 109/134/55 125/133/55
f 124/139/56 111/140/56 112/138/56 122/137/56
f 115/141/41 111/140/41 124/139/41 123/79/41
f 116/142/42 115/141/42 123/79/42 129/113/42
f 117/143/43 116/142/43 129/113/43 130/144/43
f 127/145/38 126/105/38 114/146/38 113/147/38
f 128/13/39 105/148/39 114/146/39 126/105/39
f 118/149/40 107/150/40 105/148/40 128/13/40
f 119/151/57 106/152/57 107/150/57 118/149/57
f 121/153/58 108/154/58 106/152/58 119/151/58
f 120/155/59 110/156/59 108/154/59 121/153/59
f 134/157/51 135/128/51 147/158/51 148/159/51
f 135/128/52 133/2/52 154/160/52 147/158/52
f 133/2/53 142/161/53 156/162/53 154/160/53
f 142/161/60 143/163/60 153/164/60 156/162/60
f 143/163/61 140/165/61 155/166/61 153/164/61
f 140/165/62 141/167/62 151/168/62 155/166/62
f 141/167/63 138/169/63 152/170/63 151/168/63
f 138/169/64 137/171/64 149/172/64 152/170/64
f 137/171/65 139/173/65 150/174/65 149/172/65
f 150/174/31 139/173/31 136/8/31 144/175/31
f 144/175/32 136/8/32 132/93/32 145/176/32
f 146/177/33 145/176/33 132/93/33 131/178/33
f 77/179/1 52/17/1 75/20/1
f 78/180/1 52/17/1 77/179/1
f 80/181/1 52/17/1 78/180/1
f 70/78/1 46/17/1 52/17/1
f 80/181/1 79/182/1 52/17/1
f 79/182/1 70/78/1 52/17/1
f 71/183/1 76/119/1 49/45/1
f 73/184/1 71/183/1 49/45/1
f 72/185/1 73/184/1 49/45/1
f 69/69/1 72/185/1 49/45/1
f 42/45/1 69/69/1 49/45/1
f 47/71/21 3/2/22 4/8/22
f 36/10/27 47/71/21 4/8/22
f 34/42/4 43/5/2 1/74/4
f 1/74/4 43/5/2 2/7/4
f 48/14/9 5/16/10 6/84/10
f 33/87/30 48/14/9 6/84/10
f 35/36/8 44/11/6 7/79/8
f 7/79/8 44/11/6 8/13/8
f 98/120/1 102/27/1 53/53/1
f 104/186/1 56/24/1 102/27/1
f 96/187/1 98/120/1 53/53/1
f 97/188/1 96/187/1 53/53/1
f 95/189/1 97/188/1 53/53/1
f 87/63/1 95/189/1 53/53/1
f 41/53/1 87/63/1 53/53/1
f 103/190/1 56/24/1 104/186/1
f 101/191/1 56/24/1 103/190/1
f 94/76/1 45/24/1 56/24/1
f 101/191/1 100/192/1 56/24/1
f 100/192/1 94/76/1 56/24/1
f 174/193/5 159/39/5 158/41/5 175/194/5
f 175/194/5 158/41/5 157/21/5 176/195/5
f 179/196/5 81/52/5 99/9/5 180/197/5
f 178/198/5 74/49/5 81/52/5 179/196/5
f 74/49/5 63/199/66 62/200/5
f 177/201/67 176/195/5 157/21/5 63/199/66
f 8/13/5 19/202/5 160/203/5
f 6/84/5 166/204/5 33/205/5
f 26/50/5 74/49/5 67/68/5
f 67/68/5 74/49/5 66/206/5
f 66/206/5 74/49/5 68/207/5
f 68/207/5 74/49/5 64/208/5
f 64/208/5 74/49/5 65/209/5
f 65/209/5 74/49/5 62/200/5
f 63/199/66 157/21/5 62/200/5
f 62/200/5 157/21/5 57/210/5
f 57/210/5 157/21/5 58/211/5
f 58/211/5 157/21/5 61/212/5
f 61/212/5 157/21/5 60/213/5
f 60/213/5 157/21/5 59/23/5
f 33/205/5 166/204/5 165/214/5 15/215/5
f 15/215/5 165/214/5 164/216/5 23/217/5
f 93/218/47 164/216/5 163/219/68
f 171/220/5 162/65/5 163/219/68 170/221/69
f 29/66/5 162/65/5 161/222/5 11/223/5
f 11/223/5 161/222/5 160/203/5 19/202/5
f 127/80/5 8/13/5 160/203/5 173/224/5
f 131/86/5 167/225/5 166/204/5 6/84/5
f 162/65/5 88/67/5 89/226/5
f 162/65/5 89/226/5 90/227/5
f 162/65/5 90/227/5 92/228/5
f 162/65/5 92/228/5 91/229/5
f 162/65/5 91/229/5 93/218/47
f 163/219/68 162/65/5 93/218/47
f 85/121/45 164/216/5 93/218/47
f 86/230/5 164/216/5 85/121/45
f 82/231/5 164/216/5 86/230/5
f 83/232/5 23/217/5 164/216/5
f 82/231/5 84/233/5 164/216/5
f 84/233/5 83/232/5 164/216/5
f 161/222/5 172/234/5 173/224/5 160/203/5
f 162/65/5 171/220/5 172/234/5 161/222/5
f 178/198/5 171/220/5 170/221/69 177/201/67
f 163/219/68 164/216/5 169/235/5 170/221/69
f 165/214/5 168/236/5 169/235/5 164/216/5
f 166/204/5 167/225/5 168/236/5 165/214/5
f 134/83/5 2/7/5 159/39/5 174/193/5
f 130/82/5 180/197/5 99/9/5 4/8/5
f 172/234/5 179/196/5 180/197/5 173/224/5
f 171/220/5 178/198/5 179/196/5 172/234/5
f 74/49/5 178/198/5 177/201/67 63/199/66
f 170/221/69 169/235/5 176/195/5 177/201/67
f 168/236/5 175/194/5 176/195/5 169/235/5
f 167/225/5 174/193/5 175/194/5 168/236/5
f 132/237/5 167/225/5 131/86/5
f 126/238/5 127/80/5 173/224/5
f 136/239/5 167/225/5 132/237/5
f 139/240/5 167/225/5 136/239/5
f 137/241/5 167/225/5 139/240/5
f 138/242/5 167/225/5 137/241/5
f 141/243/5 167/225/5 138/242/5
f 141/243/5 174/193/5 167/225/5
f 140/244/5 174/193/5 141/243/5
f 143/245/5 174/193/5 140/244/5
f 142/246/5 174/193/5 143/245/5
f 133/247/5 174/193/5 142/246/5
f 135/248/5 134/83/5 174/193/5
f 133/247/5 135/248/5 174/193/5
f 128/249/5 126/238/5 173/224/5
f 118/250/5 128/249/5 173/224/5
f 119/251/5 118/250/5 173/224/5
f 121/252/5 119/251/5 173/224/5
f 120/253/5 121/252/5 173/224/5
f 120/253/5 173/224/5 180/197/5
f 125/254/5 120/253/5 180/197/5
f 122/255/5 125/254/5 180/197/5
f 124/256/5 122/255/5 180/197/5
f 123/257/5 124/256/5 180/197/5
f 129/258/5 123/257/5 180/197/5
f 130/82/5 129/258/5 180/197/5
f 12/47/1 186/259/1 187/4/1 20/3/1
f 30/46/1 185/260/1 186/259/1 12/47/1
f 9/19/1 184/261/1 185/260/1 30/46/1
f 24/18/1 183/262/1 184/261/1 9/19/1
f 16/43/1 182/263/1 183/262/1 24/18/1
f 34/42/1 181/73/1 182/263/1 16/43/1
f 146/85/1 5/16/1 21/33/1 188/32/1
f 113/81/1 194/89/1 35/88/1 7/79/1
f 186/259/1 193/60/1 194/89/1 187/4/1
f 185/260/1 192/57/1 193/60/1 186/259/1
f 184/261/1 191/31/1 192/57/1 185/260/1
f 183/262/1 190/28/1 191/31/1 184/261/1
f 182/263/1 189/35/1 190/28/1 183/262/1
f 181/73/1 188/32/1 189/35/1 182/263/1
f 145/264/1 146/85/1 188/32/1
f 114/265/1 194/89/1 113/81/1
f 105/266/1 194/89/1 114/265/1
f 107/267/1 194/89/1 105/266/1
f 106/268/1 194/89/1 107/267/1
f 108/269/1 194/89/1 106/268/1
f 110/270/1 194/89/1 108/269/1
f 110/270/1 187/4/1 194/89/1
f 109/271/1 187/4/1 110/270/1
f 112/272/1 187/4/1 109/271/1
f 111/273/1 187/4/1 112/272/1
f 115/274/1 187/4/1 111/273/1
f 116/275/1 117/1/1 187/4/1
f 115/274/1 116/275/1 187/4/1
f 144/276/1 145/264/1 188/32/1
f 150/277/1 144/276/1 188/32/1
f 149/278/1 150/277/1 188/32/1
f 152/279/1 149/278/1 188/32/1
f 151/280/1 152/279/1 188/32/1
f 151/280/1 188/32/1 181/73/1
f 155/281/1 151/280/1 181/73/1
f 153/282/1 155/281/1 181/73/1
f 156/283/1 153/282/1 181/73/1
f 154/284/1 156/283/1 181/73/1
f 147/285/1 154/284/1 181/73/1
f 148/72/1 147/285/1 181/73/1
