# Blender 4.4.0
# www.blender.org
mtllib small_base.mtl
o Cube.001
v 0.804000 0.100000 -0.770000
v 0.804000 -0.000000 -0.770000
v 0.804000 0.100000 0.770000
v 0.804000 0.000000 0.770000
v -0.804000 0.100000 -0.770000
v -0.804000 -0.000000 -0.770000
v -0.804000 0.100000 0.770000
v -0.804000 0.000000 0.770000
v 0.590000 0.100000 -0.000000
v -0.590000 0.100000 -0.000000
v -1.032000 0.000000 0.442000
v 1.032000 0.100000 0.442000
v -1.032000 0.100000 -0.442000
v 1.032000 -0.000000 -0.442000
v -1.032000 -0.000000 -0.442000
v 1.032000 0.100000 -0.442000
v -1.032000 0.100000 0.442000
v 1.032000 0.000000 0.442000
v -0.920000 0.000000 0.661000
v 0.920000 0.100000 0.661000
v -0.920000 0.100000 -0.661000
v 0.920000 -0.000000 -0.661000
v -1.070000 -0.000000 -0.367000
v 0.957000 0.100000 -0.367000
v -0.957000 0.100000 0.367000
v 1.070000 0.000000 0.367000
v 0.590000 0.050000 -0.000000
v -1.070000 0.000000 0.367000
v 0.957000 0.100000 0.367000
v -0.957000 0.100000 -0.367000
v 1.070000 -0.000000 -0.367000
v -0.920000 -0.000000 -0.661000
v 0.920000 0.100000 -0.661000
v -0.920000 0.100000 0.661000
v 0.920000 0.000000 0.661000
v -1.032000 0.050000 0.442000
v 1.032000 0.050000 -0.442000
v 1.032000 0.050000 0.442000
v -1.032000 0.050000 -0.442000
v -0.957000 0.050000 -0.367000
v 1.070000 0.050000 0.367000
v -0.957000 0.050000 0.367000
v 1.070000 0.050000 -0.367000
v -0.590000 0.050000 -0.000000
v -1.070000 0.050000 -0.367000
v -1.070000 0.050000 0.367000
v 0.957000 0.050000 0.367000
v 0.957000 0.050000 -0.367000
v 0.919607 -0.000000 -0.097545
v 0.948060 -0.000000 -0.191342
v 1.070000 -0.000000 -0.364676
v 1.056447 -0.000000 -0.353553
v 0.994265 -0.000000 -0.277785
v 0.910000 0.000000 0.000000
v 0.948060 0.000000 0.191342
v 0.919607 0.000000 0.097545
v 1.056447 0.000000 0.353553
v 1.070000 0.000000 0.364676
v 0.994265 0.000000 0.277785
v 1.070000 0.050000 0.364676
v 1.070000 0.050000 -0.364676
v 0.994265 0.050000 0.277785
v 1.056447 0.050000 0.353553
v 0.919607 0.050000 0.097545
v 0.910000 0.050000 -0.000000
v 0.948060 0.050000 0.191342
v 0.919607 0.050000 -0.097545
v 0.948060 0.050000 -0.191342
v 1.056447 0.050000 -0.353553
v 0.994265 0.050000 -0.277785
v -0.910000 0.000000 0.000000
v -0.994265 -0.000000 -0.277785
v -1.070000 -0.000000 -0.364676
v -1.056447 -0.000000 -0.353553
v -0.919607 -0.000000 -0.097545
v -0.948060 -0.000000 -0.191342
v -1.070000 0.050000 -0.364676
v -1.070000 0.000000 0.364676
v -1.056447 0.000000 0.353553
v -0.994265 0.000000 0.277785
v -0.919607 0.000000 0.097545
v -0.948060 0.000000 0.191342
v -1.070000 0.050000 0.364676
v -1.056447 0.050000 -0.353553
v -0.994265 0.050000 -0.277785
v -0.948060 0.050000 -0.191342
v -0.750000 0.050000 -0.000000
v -0.919607 0.050000 -0.097545
v -1.056447 0.050000 0.353553
v -0.994265 0.050000 0.277785
v -0.910000 0.050000 -0.000000
v -0.948060 0.050000 0.191342
v -0.919607 0.050000 0.097545
v 0.401607 0.100000 -0.770000
v -0.401607 0.100000 -0.770000
v -0.277785 0.100000 -0.649265
v -0.097545 0.100000 -0.574607
v -0.191342 0.100000 -0.603060
v 0.097545 0.100000 -0.574607
v 0.277785 0.100000 -0.649265
v 0.191342 0.100000 -0.603060
v 0.000000 0.100000 -0.565000
v -0.277785 -0.000000 -0.649265
v -0.097545 -0.000000 -0.574607
v -0.191342 -0.000000 -0.603060
v 0.097545 -0.000000 -0.574607
v 0.277785 -0.000000 -0.649265
v 0.191342 -0.000000 -0.603060
v 0.000000 -0.000000 -0.565000
v -0.401607 -0.000000 -0.770000
v 0.353553 -0.000000 -0.711447
v 0.401607 -0.000000 -0.770000
v -0.353553 -0.000000 -0.711447
v -0.353553 0.100000 -0.711447
v 0.353553 0.100000 -0.711447
v -0.353553 0.100000 0.711447
v -0.401607 0.100000 0.770000
v 0.401607 0.100000 0.770000
v 0.353553 0.100000 0.711447
v 0.353553 0.000000 0.711447
v -0.401607 0.000000 0.770000
v -0.353553 0.000000 0.711447
v 0.401607 0.000000 0.770000
v -0.277785 0.000000 0.649265
v -0.097545 0.000000 0.574607
v -0.191342 0.000000 0.603060
v 0.097545 0.000000 0.574607
v 0.277785 0.000000 0.649265
v 0.191342 0.000000 0.603060
v 0.000000 0.000000 0.565000
v -0.277785 0.100000 0.649265
v -0.097545 0.100000 0.574607
v -0.191342 0.100000 0.603060
v 0.097545 0.100000 0.574607
v 0.277785 0.100000 0.649265
v 0.191342 0.100000 0.603060
v 0.000000 0.100000 0.565000
v -0.804000 0.000000 0.661000
v -0.804000 0.000000 0.442000
v -0.804000 0.000000 0.367000
v -0.804000 0.000000 0.000000
v -0.804000 -0.000000 -0.367000
v -0.804000 -0.000000 -0.442000
v -0.804000 -0.000000 -0.661000
v 0.804000 0.000000 0.661000
v 0.804000 0.000000 0.442000
v 0.804000 0.000000 0.367000
v 0.804000 0.000000 0.000000
v 0.804000 -0.000000 -0.367000
v 0.804000 -0.000000 -0.442000
v 0.804000 -0.000000 -0.661000
v 0.750000 0.050000 -0.000000
v 0.401607 0.100000 0.661000
v 0.401607 0.100000 0.442000
v 0.401607 0.100000 0.367000
v 0.401607 0.100000 -0.000000
v 0.401607 0.100000 -0.367000
v 0.401607 0.100000 -0.442000
v 0.401607 0.100000 -0.661000
v -0.401607 0.100000 0.661000
v -0.401607 0.100000 0.442000
v -0.401607 0.100000 0.367000
v -0.401607 0.100000 -0.000000
v -0.401607 0.100000 -0.367000
v -0.401607 0.100000 -0.442000
v -0.401607 0.100000 -0.661000
v -0.401607 0.000000 0.661000
v -0.401607 0.000000 0.442000
v -0.401607 0.000000 0.367000
v -0.401607 0.000000 0.000000
v -0.401607 -0.000000 -0.367000
v -0.401607 -0.000000 -0.442000
v -0.401607 -0.000000 -0.661000
v 0.401607 0.000000 0.661000
v 0.401607 0.000000 0.442000
v 0.401607 0.000000 0.367000
v 0.401607 0.000000 0.000000
v 0.401607 -0.000000 -0.367000
v 0.401607 -0.000000 -0.442000
v 0.401607 -0.000000 -0.661000
vn -0.0000 1.0000 -0.0000
vn -0.4276 -0.0000 0.9040
vn 0.3683 -0.0000 0.9297
vn -0.7993 -0.0000 -0.6009
vn -0.8915 0.0022 -0.4531
vn -0.0000 -1.0000 -0.0000
vn -0.4276 -0.0000 -0.9040
vn -0.7730 -0.0000 -0.6344
vn -0.8903 -0.0000 -0.4553
vn 0.7071 -0.0000 0.7071
vn -0.7071 -0.0000 -0.7071
vn -0.7993 -0.0000 0.6009
vn -0.3683 -0.0000 0.9297
vn 0.7071 -0.0000 -0.7071
vn -0.7071 -0.0000 0.7071
vn -0.8920 -0.0000 -0.4520
vn -0.8913 -0.0006 -0.4533
vn -1.0000 -0.0000 -0.0000
vn 0.8920 -0.0000 0.4520
vn 0.8915 0.0022 0.4531
vn 0.8913 -0.0006 0.4533
vn 1.0000 -0.0000 -0.0000
vn 0.7993 -0.0000 -0.6009
vn 0.8903 -0.0000 -0.4553
vn 0.8915 0.0022 -0.4531
vn 0.8909 -0.0003 -0.4542
vn 0.4276 -0.0000 0.9040
vn 0.7730 -0.0000 0.6344
vn 0.7993 -0.0000 0.6009
vn -0.8909 -0.0003 0.4542
vn -0.8915 0.0022 0.4531
vn -0.8920 -0.0000 0.4520
vn 0.8920 -0.0000 -0.4520
vn 0.3683 -0.0000 -0.9297
vn 0.2701 -0.9048 0.3291
vn 0.4276 -0.0000 -0.9040
vn -0.3683 -0.0000 -0.9297
vn -0.7730 -0.0000 0.6344
vn 0.6344 -0.0000 -0.7730
vn 0.7730 -0.0000 -0.6344
vn 0.8819 -0.0000 -0.4714
vn 0.9569 -0.0000 -0.2903
vn 0.9952 -0.0000 -0.0980
vn 0.9952 -0.0000 0.0980
vn 0.9569 -0.0000 0.2903
vn 0.8819 -0.0000 0.4714
vn 0.6344 -0.0000 0.7730
vn -0.6344 -0.0000 0.7730
vn -0.8819 -0.0000 0.4714
vn -0.9569 -0.0000 0.2903
vn -0.9952 -0.0000 0.0980
vn -0.9952 -0.0000 -0.0980
vn -0.9569 -0.0000 -0.2903
vn -0.8819 -0.0000 -0.4714
vn -0.6344 -0.0000 -0.7730
vn -0.2701 0.9048 -0.3291
vn -0.2701 0.9048 -0.3292
vn -0.4714 -0.0000 -0.8819
vn -0.2903 -0.0000 -0.9569
vn -0.0980 -0.0000 -0.9952
vn 0.0980 -0.0000 -0.9952
vn 0.2903 -0.0000 -0.9569
vn 0.4714 -0.0000 -0.8819
vn -0.0980 -0.0000 0.9952
vn -0.2903 -0.0000 0.9569
vn -0.4714 -0.0000 0.8819
vn -0.2701 -0.9048 0.3291
vn -0.8903 -0.0000 0.4553
vn 0.4714 -0.0000 0.8819
vn 0.2903 -0.0000 0.9569
vn 0.0980 -0.0000 0.9952
vn -0.2701 0.9048 0.3292
vn 0.2701 0.9048 0.3292
vn 0.2701 0.9048 -0.3292
vn 0.2701 0.9048 -0.3291
vn 0.2701 -0.9048 0.3292
vn 0.2701 0.9048 0.3291
vn -0.2701 0.9048 0.3291
vn -0.2701 -0.9048 0.3292
vn 0.5935 -0.3531 -0.7232
vn 0.4574 -0.6929 -0.5574
vn -0.2701 -0.9048 -0.3292
vn -0.2701 -0.9048 -0.3291
vn 0.8903 -0.0000 0.4553
vt 0.804566 0.718750
vt 0.875000 0.718750
vt 0.875000 0.750000
vt 0.812439 0.750000
vt 0.687561 0.750000
vt 0.625000 0.750000
vt 0.625000 0.718750
vt 0.695434 0.718750
vt 0.312439 0.750000
vt 0.375000 0.750000
vt 0.875000 0.531250
vt 0.125000 0.531250
vt 0.500000 0.187500
vt 0.359239 0.718750
vt 0.375000 0.718750
vt 0.125000 0.750000
vt 0.125000 0.718750
vt 0.140761 0.718750
vt 0.687561 0.500000
vt 0.312439 0.500000
vt 0.698763 0.516787
vt 0.625000 0.187500
vt 0.500000 0.593750
vt 0.625000 0.593750
vt 0.625000 0.625000
vt 0.500000 0.625000
vt 0.343925 0.593750
vt 0.375000 0.593750
vt 0.375000 0.593948
vt 0.500000 0.093750
vt 0.625000 0.093750
vt 0.625000 0.125000
vt 0.500000 0.125000
vt 0.802456 0.593750
vt 0.875000 0.593750
vt 0.875000 0.625000
vt 0.835086 0.625000
vt 0.695434 0.531250
vt 0.701356 0.562500
vt 0.625000 0.562500
vt 0.625000 0.531250
vt 0.140761 0.531250
vt 0.152616 0.562500
vt 0.125000 0.562500
vt 0.500000 0.656250
vt 0.625000 0.656250
vt 0.625000 0.687500
vt 0.500000 0.687500
vt 0.343925 0.656250
vt 0.375000 0.656250
vt 0.375000 0.687500
vt 0.347384 0.687500
vt 0.500000 0.156250
vt 0.625000 0.156250
vt 0.802456 0.656250
vt 0.875000 0.656250
vt 0.875000 0.687500
vt 0.798644 0.687500
vt 0.375000 0.156250
vt 0.375000 0.187500
vt 0.500000 0.156052
vt 0.375000 0.156052
vt 0.156075 0.656250
vt 0.125000 0.656250
vt 0.125000 0.656052
vt 0.375000 0.656052
vt 0.500000 0.656052
vt 0.500000 0.562500
vt 0.375000 0.562500
vt 0.375000 0.531250
vt 0.375000 0.500000
vt 0.359239 0.531250
vt 0.125000 0.500000
vt 0.187561 0.750000
vt 0.125000 0.800000
vt 0.812439 0.500000
vt 0.875000 0.500000
vt 0.804566 0.531250
vt 0.625000 0.500000
vt 0.798644 0.562500
vt 0.875000 0.562500
vt 0.375000 0.093750
vt 0.500000 0.093948
vt 0.375000 0.093948
vt 0.375000 0.062500
vt 0.500000 0.062500
vt 0.625000 0.062500
vt 0.347384 0.562500
vt 0.500000 0.593948
vt 0.212469 0.717076
vt 0.195434 0.718750
vt 0.201356 0.687500
vt 0.187561 0.500000
vt 0.875000 0.800000
vt 0.301237 0.733213
vt 0.701356 0.687500
vt 0.380590 0.775000
vt 0.380590 0.750000
vt 0.375000 0.775000
vt 0.343750 0.750000
vt 0.343750 0.775000
vt 0.312500 0.750000
vt 0.312500 0.775000
vt 0.281250 0.750000
vt 0.281250 0.775000
vt 0.250000 0.750000
vt 0.250000 0.775000
vt 0.218750 0.750000
vt 0.218750 0.775000
vt 0.187500 0.750000
vt 0.187500 0.775000
vt 0.156250 0.750000
vt 0.156250 0.775000
vt 0.125000 0.775000
vt 0.119410 0.750000
vt 0.119410 0.775000
vt 0.880590 0.750000
vt 0.875000 0.775000
vt 0.880590 0.775000
vt 0.843750 0.750000
vt 0.843750 0.775000
vt 0.812500 0.750000
vt 0.812500 0.775000
vt 0.781250 0.750000
vt 0.781250 0.775000
vt 0.750000 0.750000
vt 0.750000 0.775000
vt 0.718750 0.750000
vt 0.718750 0.775000
vt 0.687500 0.750000
vt 0.687500 0.775000
vt 0.656250 0.750000
vt 0.656250 0.775000
vt 0.625000 0.775000
vt 0.619410 0.750000
vt 0.619410 0.775000
vt 0.593750 0.800000
vt 0.562500 0.800000
vt 0.593750 0.750000
vt 0.562500 0.750000
vt 0.531250 0.800000
vt 0.531250 0.750000
vt 0.500000 0.800000
vt 0.500000 0.750000
vt 0.468750 0.800000
vt 0.468750 0.750000
vt 0.437500 0.800000
vt 0.437500 0.750000
vt 0.406250 0.800000
vt 0.406250 0.750000
vt 0.375000 0.800000
vt 1.000000 0.800000
vt 1.000000 0.750000
vt 0.968750 0.750000
vt 0.968750 0.800000
vt 0.937500 0.750000
vt 0.937500 0.800000
vt 0.906250 0.750000
vt 0.906250 0.800000
vt 0.287531 0.717076
vt 0.298644 0.687500
vt 0.304566 0.718750
vt 0.093750 0.800000
vt 0.093750 0.750000
vt 0.062500 0.750000
vt 0.062500 0.800000
vt 0.031250 0.750000
vt 0.031250 0.800000
vt 0.000000 0.750000
vt 0.000000 0.800000
vt 0.156075 0.593750
vt 0.125000 0.593750
vt 0.125000 0.593948
vt 0.203083 0.625000
vt 0.203083 0.656250
vt 0.156075 0.625000
vt 0.152616 0.687500
vt 0.125000 0.687500
vt 0.195434 0.531250
vt 0.201356 0.562500
vt 0.298644 0.562500
vt 0.296917 0.593750
vt 0.296917 0.625000
vt 0.343925 0.625000
vt 0.357431 0.633306
vt 0.356308 0.625000
vt 0.296917 0.656250
vt 0.304566 0.531250
vt 0.500000 0.616694
vt 0.500000 0.655105
vt 0.500000 0.648653
vt 0.500000 0.641293
vt 0.500000 0.633306
vt 0.500000 0.608707
vt 0.500000 0.601347
vt 0.500000 0.594895
vt 0.697544 0.593750
vt 0.664914 0.625000
vt 0.697544 0.656250
vt 0.698763 0.733213
vt 0.801237 0.733213
vt 0.801237 0.516787
vt 0.712469 0.532924
vt 0.724740 0.539518
vt 0.737312 0.543578
vt 0.750000 0.544949
vt 0.775260 0.539518
vt 0.787531 0.532924
vt 0.762688 0.543578
vt 0.500000 0.116694
vt 0.500000 0.155105
vt 0.500000 0.148653
vt 0.500000 0.141293
vt 0.500000 0.133306
vt 0.500000 0.108707
vt 0.500000 0.101347
vt 0.500000 0.094895
vt 0.775260 0.710482
vt 0.787531 0.717076
vt 0.762688 0.706422
vt 0.750000 0.705051
vt 0.737312 0.706422
vt 0.724740 0.710482
vt 0.712469 0.717076
vt 0.126583 0.594895
vt 0.133848 0.601347
vt 0.139245 0.608707
vt 0.142569 0.616694
vt 0.143692 0.625000
vt 0.142569 0.633306
vt 0.139245 0.641293
vt 0.133848 0.648653
vt 0.126583 0.655105
vt 0.203083 0.593750
vt 0.198763 0.733213
vt 0.301237 0.516787
vt 0.198763 0.516787
vt 0.224740 0.539518
vt 0.212469 0.532924
vt 0.237312 0.543578
vt 0.250000 0.544949
vt 0.262688 0.543578
vt 0.275260 0.539518
vt 0.287531 0.532924
vt 0.224740 0.710482
vt 0.237312 0.706422
vt 0.250000 0.705051
vt 0.262688 0.706422
vt 0.275260 0.710482
vt 0.373417 0.594895
vt 0.366153 0.601347
vt 0.360755 0.608707
vt 0.357431 0.616694
vt 0.360755 0.641293
vt 0.366152 0.648653
vt 0.373417 0.655105
vt 0.000000 0.000000
s 1
usemtl Material.001
f 160/1/1 34/2/1 7/3/1 117/4/1
f 118/5/1 3/6/1 20/7/1 153/8/1
f 118/5/2 123/9/2 4/10/3 3/6/3
f 21/11/4 32/12/4 39/13/5
f 145/14/6 35/15/6 4/10/6
f 8/16/6 19/17/6 138/18/6
f 94/19/7 112/20/7 111/6/8 115/21/8
f 13/22/9 21/11/4 39/13/5
f 48/23/10 24/24/10 9/25/10 27/26/10
f 149/27/6 31/28/6 51/29/6
f 42/30/11 25/31/11 10/32/11 44/33/11
f 164/34/1 30/35/1 10/36/1 163/37/1
f 159/38/1 158/39/1 16/40/1 33/41/1
f 34/2/12 19/17/12 8/16/13 7/3/13
f 144/42/6 143/43/6 15/44/6 32/12/6
f 47/45/14 29/46/14 12/47/14 38/48/14
f 147/49/6 26/50/6 18/51/6 146/52/6
f 40/53/15 30/54/15 13/22/15 39/13/15
f 162/55/1 25/56/1 17/57/1 161/58/1
f 163/37/1 10/36/1 25/56/1 162/55/1
f 23/59/16 45/53/16 39/13/5 15/60/17
f 77/61/18 45/53/18 23/59/18 73/62/18
f 44/33/15 10/32/15 30/54/15 40/53/15
f 140/63/6 28/64/6 78/65/6
f 26/50/19 41/45/19 38/48/20 18/51/21
f 41/45/22 26/50/22 58/66/22 60/67/22
f 27/26/14 9/25/14 29/46/14 47/45/14
f 33/41/23 16/40/24 37/68/25
f 14/69/26 22/70/23 37/68/25
f 2/71/6 22/70/6 151/72/6
f 6/73/6 144/42/6 32/12/6
f 117/4/27 7/3/13 8/16/13 121/74/27
f 116/75/28 117/4/27 121/74/27 122/16/28
f 20/7/29 3/6/3 4/10/3 35/15/29
f 95/76/1 5/77/1 21/11/1 166/78/1
f 159/38/1 33/41/1 1/79/1 94/19/1
f 165/80/1 13/81/1 30/35/1 164/34/1
f 28/82/18 46/30/18 83/83/18 78/84/18
f 11/85/30 36/86/31 46/30/32 28/82/32
f 36/86/11 17/87/11 25/31/11 42/30/11
f 150/88/6 14/69/6 31/28/6 149/27/6
f 51/29/22 31/28/22 43/23/22 61/89/22
f 14/69/26 37/68/25 43/23/33 31/28/33
f 37/68/10 16/40/10 24/24/10 48/23/10
f 94/19/7 1/79/34 2/71/34 112/20/7
f 32/12/4 15/44/17 39/13/5
f 124/90/35 167/91/6 168/92/6
f 146/52/6 18/51/6 35/15/6 145/14/6
f 22/70/23 33/41/23 37/68/25
f 95/76/36 110/93/36 6/73/37 5/77/37
f 21/11/4 5/77/37 6/73/37 32/12/4
f 118/5/2 119/94/38 120/95/38 123/9/2
f 153/8/1 20/7/1 12/47/1 154/96/1
f 40/53/1 87/33/1 44/33/1
f 46/30/1 36/86/1 42/30/1
f 39/13/1 45/53/1 40/53/1
f 87/33/1 42/30/1 44/33/1
f 47/45/1 38/48/1 41/45/1
f 47/45/1 152/26/1 27/26/1
f 152/26/1 48/23/1 27/26/1
f 37/68/1 48/23/1 43/23/1
f 60/97/39 58/98/39 57/10/39 63/99/39
f 63/99/40 57/10/40 59/100/40 62/101/40
f 62/101/41 59/100/41 55/102/41 66/103/41
f 66/103/42 55/102/42 56/104/42 64/105/42
f 64/105/43 56/104/43 54/106/43 65/107/43
f 65/107/44 54/106/44 49/108/44 67/109/44
f 67/109/45 49/108/45 50/110/45 68/111/45
f 68/111/46 50/110/46 53/112/46 70/113/46
f 70/113/28 53/112/28 52/16/28 69/114/28
f 69/114/47 52/16/47 51/115/47 61/116/47
f 73/117/48 74/3/48 84/118/48 77/119/48
f 74/3/38 72/120/38 85/121/38 84/118/38
f 72/120/49 76/122/49 86/123/49 85/121/49
f 76/122/50 75/124/50 88/125/50 86/123/50
f 75/124/51 71/126/51 91/127/51 88/125/51
f 71/126/52 81/128/52 93/129/52 91/127/52
f 81/128/53 82/130/53 92/131/53 93/129/53
f 82/130/54 80/132/54 90/133/54 92/131/54
f 80/132/8 79/6/8 89/134/8 90/133/8
f 79/6/55 78/135/55 83/136/55 89/134/55
f 22/70/23 2/71/34 1/79/34 33/41/23
f 100/137/56 159/38/1 115/21/57
f 101/138/58 100/137/58 107/139/58 108/140/58
f 99/141/59 101/138/59 108/140/59 106/142/59
f 102/143/60 99/141/60 106/142/60 109/144/60
f 97/145/61 102/143/61 109/144/61 104/146/61
f 98/147/62 97/145/62 104/146/62 105/148/62
f 96/149/63 98/147/63 105/148/63 103/150/63
f 113/10/40 110/93/36 95/76/36 114/151/40
f 137/152/64 130/153/64 127/154/64 134/155/64
f 134/155/65 127/154/65 129/156/65 136/157/65
f 136/157/66 129/156/66 128/158/66 135/159/66
f 128/160/67 175/161/6 174/162/6
f 34/2/12 17/87/68 36/86/31
f 131/163/69 124/164/69 126/165/69 133/166/69
f 133/166/70 126/165/70 125/167/70 132/168/70
f 132/168/71 125/167/71 130/169/71 137/170/71
f 151/72/6 22/70/6 14/69/6 150/88/6
f 15/44/6 143/43/6 142/171/6 23/172/6
f 73/173/6 23/172/6 142/171/6
f 170/174/6 169/175/6 140/63/6 141/176/6
f 28/64/6 140/63/6 139/177/6 11/178/6
f 11/178/6 139/177/6 138/18/6 19/17/6
f 121/74/6 8/16/6 138/18/6 167/91/6
f 110/93/6 173/179/6 144/42/6 6/73/6
f 173/179/6 172/180/6 143/43/6 144/42/6
f 179/181/6 150/88/6 149/27/6 178/182/6
f 177/183/6 178/182/6 149/27/6 148/184/6
f 56/185/6 148/184/6 54/186/6
f 176/187/6 147/49/6 146/52/6 175/161/6
f 175/161/6 146/52/6 145/14/6 174/162/6
f 174/162/6 145/14/6 4/10/6 123/9/6
f 112/20/6 2/71/6 151/72/6 180/188/6
f 60/67/1 47/45/1 41/45/1
f 67/189/1 152/26/1 65/26/1
f 63/190/1 47/45/1 60/67/1
f 62/191/1 47/45/1 63/190/1
f 66/192/1 47/45/1 62/191/1
f 64/193/1 65/26/1 152/26/1
f 66/192/1 64/193/1 47/45/1
f 47/45/1 64/193/1 152/26/1
f 67/189/1 48/23/1 152/26/1
f 68/194/1 48/23/1 67/189/1
f 70/195/1 48/23/1 68/194/1
f 61/89/1 43/23/1 48/23/1
f 70/195/1 69/196/1 48/23/1
f 69/196/1 61/89/1 48/23/1
f 166/78/1 21/11/1 13/81/1 165/80/1
f 16/40/1 158/39/1 157/197/1 24/24/1
f 24/24/1 157/197/1 156/198/1 9/25/1
f 9/25/1 156/198/1 155/199/1 29/46/1
f 29/46/1 155/199/1 154/96/1 12/47/1
f 160/1/1 161/58/1 17/57/1 34/2/1
f 119/200/72 118/5/1 153/8/1
f 159/38/1 94/19/1 115/21/57
f 158/39/1 165/80/1 164/34/1 157/197/1
f 157/197/1 164/34/1 163/37/1 156/198/1
f 156/198/1 163/37/1 162/55/1 155/199/1
f 155/199/1 162/55/1 161/58/1 154/96/1
f 160/1/1 117/4/1 116/201/73
f 114/202/74 95/76/1 166/78/1
f 100/203/56 158/39/1 159/38/1
f 101/204/1 158/39/1 100/203/56
f 99/205/1 158/39/1 101/204/1
f 102/206/1 158/39/1 99/205/1
f 102/206/1 165/80/1 158/39/1
f 98/207/1 96/208/75 165/80/1
f 97/209/1 98/207/1 165/80/1
f 102/206/1 97/209/1 165/80/1
f 77/61/1 40/53/1 45/53/1
f 93/210/1 87/33/1 91/33/1
f 84/211/1 40/53/1 77/61/1
f 85/212/1 40/53/1 84/211/1
f 86/213/1 40/53/1 85/212/1
f 88/214/1 91/33/1 87/33/1
f 86/213/1 88/214/1 40/53/1
f 40/53/1 88/214/1 87/33/1
f 93/210/1 42/30/1 87/33/1
f 92/215/1 42/30/1 93/210/1
f 90/216/1 42/30/1 92/215/1
f 83/83/1 46/30/1 42/30/1
f 90/216/1 89/217/1 42/30/1
f 89/217/1 83/83/1 42/30/1
f 124/164/35 122/16/76 167/91/6
f 133/218/1 161/58/1 131/219/77
f 132/220/1 161/58/1 133/218/1
f 137/221/1 161/58/1 132/220/1
f 137/221/1 154/96/1 161/58/1
f 134/222/1 154/96/1 137/221/1
f 136/223/1 154/96/1 134/222/1
f 135/224/78 154/96/1 136/223/1
f 174/162/6 120/95/79 128/158/67
f 74/225/6 73/173/6 142/171/6
f 72/226/6 74/225/6 142/171/6
f 76/227/6 72/226/6 142/171/6
f 75/228/6 76/227/6 142/171/6
f 75/228/6 142/171/6 141/176/6
f 71/229/6 75/228/6 141/176/6
f 71/229/6 141/176/6 81/230/6
f 141/176/6 140/63/6 81/230/6
f 81/230/6 140/63/6 82/231/6
f 82/231/6 140/63/6 80/232/6
f 80/232/6 140/63/6 79/233/6
f 79/233/6 140/63/6 78/65/6
f 180/188/6 151/72/6 150/88/6 179/181/6
f 143/43/6 172/180/6 171/234/6 142/171/6
f 141/176/6 142/171/6 171/234/6 170/174/6
f 177/183/6 176/187/6 169/175/6 170/174/6
f 140/63/6 169/175/6 168/92/6 139/177/6
f 139/177/6 168/92/6 167/91/6 138/18/6
f 122/235/76 121/74/6 167/91/6
f 96/208/75 114/202/74 166/78/1
f 103/150/80 113/10/81 114/202/74 96/149/75
f 172/180/6 179/181/6 178/182/6 171/234/6
f 170/174/6 171/234/6 178/182/6 177/183/6
f 148/184/6 147/49/6 176/187/6 177/183/6
f 169/175/6 176/187/6 175/161/6 168/92/6
f 135/224/78 119/200/72 153/8/1
f 174/162/6 123/9/6 120/95/79
f 111/236/82 112/20/6 180/188/6
f 110/93/6 113/237/81 173/179/6
f 165/80/1 96/208/75 166/78/1
f 105/238/6 172/180/6 103/239/6
f 104/240/6 172/180/6 105/238/6
f 109/241/6 172/180/6 104/240/6
f 109/241/6 179/181/6 172/180/6
f 106/242/6 179/181/6 109/241/6
f 108/243/6 179/181/6 106/242/6
f 107/244/83 179/181/6 108/243/6
f 179/181/6 107/244/83 180/188/6
f 115/21/57 111/6/82 107/244/83 100/137/56
f 107/244/83 111/236/82 180/188/6
f 116/201/73 131/219/77 160/1/1
f 124/164/35 131/163/77 116/201/73 122/16/76
f 160/1/1 131/219/77 161/58/1
f 124/90/35 168/92/6 126/245/6
f 126/245/6 168/92/6 125/246/6
f 125/246/6 168/92/6 130/247/6
f 168/92/6 175/161/6 130/247/6
f 130/247/6 175/161/6 127/248/6
f 127/248/6 175/161/6 129/249/6
f 129/249/6 175/161/6 128/160/67
f 154/96/1 135/224/78 153/8/1
f 128/158/67 120/95/79 119/200/72 135/159/78
f 149/27/6 51/29/6 52/250/6
f 149/27/6 52/250/6 53/251/6
f 149/27/6 53/251/6 50/252/6
f 149/27/6 50/252/6 49/253/6
f 148/184/6 149/27/6 49/253/6
f 54/186/6 148/184/6 49/253/6
f 56/185/6 147/49/6 148/184/6
f 55/254/6 147/49/6 56/185/6
f 59/255/6 147/49/6 55/254/6
f 57/256/6 58/66/6 26/50/6 147/49/6
f 59/255/6 57/256/6 147/49/6
f 35/15/29 18/51/21 38/48/20
f 12/47/84 20/7/29 38/48/20
f 20/7/29 35/15/29 38/48/20
f 19/17/12 34/2/12 36/86/31
f 11/178/30 19/17/12 36/86/31
f 103/150/80 173/179/6 113/237/81
s 0
f 103/257/6 172/257/6 173/257/6
