# Blender 4.5.4 LTS
# www.blender.org
mtllib toronshuttle.mtl
o Plane
v 0.080732 0.119202 0.125463
v 0.255091 0.027576 0.064179
v 0.080732 0.119202 -0.114857
v 0.255091 0.027576 -0.053572
v -0.103599 0.203110 0.090380
v -0.103599 0.203110 -0.079774
v -0.211606 0.202226 0.090380
v -0.211606 0.202226 -0.079774
v -0.224333 0.190559 0.090380
v -0.224333 0.190559 -0.079774
v 0.081145 0.056376 0.130658
v 0.081145 0.056376 -0.116860
v -0.098097 0.055506 0.181589
v -0.098097 0.055506 -0.170982
v -0.200978 0.055506 0.176342
v -0.200978 0.055506 -0.165736
v -0.221130 0.069294 0.167336
v -0.221130 0.069294 -0.156730
v 0.081145 -0.057642 0.088878
v 0.081145 -0.057642 -0.079382
v -0.098097 -0.058511 0.123500
v -0.098097 -0.058511 -0.116174
v -0.200978 -0.058511 0.119934
v -0.200978 -0.058511 -0.112607
v -0.221130 -0.044723 0.113811
v -0.221130 -0.044723 -0.106485
v -0.255084 0.202739 0.012022
v -0.255084 0.227170 0.012022
v -0.255084 0.202739 -0.012409
v -0.255084 0.227170 -0.012409
v -0.154784 0.191289 0.023472
v -0.189785 0.238620 0.023472
v -0.154784 0.191289 -0.023859
v -0.189785 0.238620 -0.023859
v -0.234932 0.191289 -0.023859
v -0.234932 0.238620 -0.023859
v -0.234932 0.191289 0.023472
v -0.234932 0.238620 0.023472
v -0.255084 0.123697 0.138931
v -0.255084 0.137711 0.158944
v -0.255084 0.143710 0.124917
v -0.255084 0.157724 0.144930
v -0.154784 0.107751 0.136119
v -0.189785 0.134899 0.174890
v -0.154784 0.146522 0.108971
v -0.189785 0.173670 0.147742
v -0.234932 0.146522 0.108971
v -0.234932 0.173670 0.147742
v -0.234932 0.107751 0.136119
v -0.234932 0.134899 0.174890
v -0.255084 0.123697 -0.126590
v -0.255084 0.137711 -0.146603
v -0.255084 0.143710 -0.112577
v -0.255084 0.157724 -0.132590
v -0.154784 0.107751 -0.123778
v -0.189785 0.134899 -0.162550
v -0.154784 0.146522 -0.096630
v -0.189785 0.173670 -0.135402
v -0.234932 0.146522 -0.096630
v -0.234932 0.173670 -0.135402
v -0.234932 0.107751 -0.123778
v -0.234932 0.134899 -0.162550
vn 0.4652 0.8852 -0.0000
vn 0.4143 0.9101 -0.0000
vn -0.0082 1.0000 -0.0000
vn -0.6757 0.7372 -0.0000
vn 0.1633 0.9866 -0.0000
vn -0.5651 -0.3327 -0.7550
vn 0.1800 -0.3384 0.9236
vn -0.0314 -0.4222 -0.9060
vn -0.9997 -0.0264 -0.0000
vn 0.3673 0.0790 0.9267
vn 0.3464 0.0322 -0.9375
vn 0.0783 0.5262 0.8468
vn 0.0783 0.5262 -0.8468
vn -0.4348 0.4743 -0.7655
vn -0.0041 0.5053 -0.8629
vn -0.0041 0.5053 0.8629
vn -0.4348 0.4743 0.7655
vn 0.0049 -1.0000 -0.0000
vn -0.0000 -1.0000 -0.0000
vn -0.5647 -0.8253 -0.0000
vn -1.0000 -0.0000 -0.0000
vn -0.0454 -0.4535 0.8901
vn 0.2645 -0.4178 -0.8692
vn -0.4989 -0.3843 0.7768
vn 0.2890 -0.3294 0.8989
vn 0.2820 -0.2996 -0.9114
vn 0.4399 -0.8980 -0.0000
vn -0.0000 -0.0000 -1.0000
vn 0.8040 0.5946 -0.0000
vn -0.4940 -0.0000 0.8695
vn -0.4940 0.8695 -0.0000
vn -0.0000 1.0000 -0.0000
vn -0.4940 -0.8695 -0.0000
vn -0.0000 -0.0000 1.0000
vn -0.4940 -0.0000 -0.8695
vn -0.0000 0.8192 -0.5736
vn 0.8040 0.3410 0.4870
vn -0.4940 -0.7122 0.4987
vn -0.0000 -0.5736 -0.8192
vn -0.4940 0.4987 0.7122
vn -0.0000 0.5736 0.8192
vn -0.4940 -0.4987 -0.7122
vn -0.0000 -0.8192 0.5736
vn -0.4940 0.7122 -0.4987
vn -0.0000 0.8192 0.5736
vn 0.8040 0.3410 -0.4870
vn -0.4940 -0.7122 -0.4987
vn -0.0000 -0.5736 0.8192
vn -0.4940 0.4987 -0.7122
vn -0.0000 0.5736 -0.8192
vn -0.4940 -0.4987 0.7122
vn -0.0000 -0.8192 -0.5736
vn -0.4940 0.7122 0.4987
vn -0.4915 -0.3678 -0.7894
vn 0.2474 -0.4398 0.8633
vn -0.0459 -0.4328 -0.9003
vn 0.2721 0.0811 0.9589
vn 0.2888 0.0324 -0.9569
vn -0.0418 0.5028 -0.8634
vn -0.0434 0.5240 -0.8506
vn -0.0434 0.5240 0.8506
vn -0.0418 0.5028 0.8634
vn -0.0311 -0.4432 0.8959
vn 0.1928 -0.3064 -0.9322
vn -0.5709 -0.3489 0.7432
vt 0.123174 0.620319
vt 0.372824 0.296845
vt 0.372824 0.735510
vt 0.636753 0.669568
vt 0.636753 0.362787
vt 0.791399 0.669568
vt 0.791399 0.362787
vt 0.809623 0.669568
vt 0.123174 0.420733
vt 0.372234 0.293080
vt 0.776183 0.222429
vt 0.805037 0.312582
vt 0.805037 0.239358
vt 0.372234 0.745274
vt 0.628876 0.731819
vt 0.372234 0.666744
vt 0.628876 0.294371
vt 0.776183 0.301074
vt 0.589029 0.562051
vt 0.528514 0.429790
vt 0.589029 0.470979
vt 0.622142 0.825091
vt 0.632916 0.224944
vt 0.809623 0.362787
vt 0.776183 0.831142
vt 0.805037 0.814214
vt 0.372234 0.363525
vt 0.805037 0.713608
vt 0.528514 0.603240
vt 0.471615 0.458438
vt 0.776183 0.725116
vt 0.855238 0.556816
vt 0.854576 0.476244
vt 0.847427 0.451826
vt 0.774083 0.451826
vt 0.717222 0.451826
vt 0.717884 0.581235
vt 0.848089 0.581235
vt 0.774745 0.581235
vt 0.848612 0.828060
vt 0.848612 0.770080
vt 0.848612 0.793959
vt 0.822454 0.742907
vt 0.763851 0.808973
vt 0.718419 0.742907
vt 0.718419 0.789167
vt 0.822454 0.855233
vt 0.822454 0.789167
vt 0.848612 0.804182
vt 0.822454 0.808973
vt 0.763851 0.855233
vt 0.843040 0.239860
vt 0.845026 0.266402
vt 0.843040 0.270840
vt 0.817387 0.297488
vt 0.717344 0.299214
vt 0.761900 0.251677
vt 0.717344 0.253846
vt 0.819373 0.206309
vt 0.819373 0.271101
vt 0.819373 0.251677
vt 0.761900 0.206309
vt 0.471615 0.576347
vt 0.845026 0.256375
s 0
usemtl Material
f 2/1/1 3/2/1 1/3/1
f 3/2/2 5/4/2 1/3/2
f 6/5/3 7/6/3 5/4/3
f 8/7/4 9/8/4 7/6/4
f 2/1/5 4/9/5 12/10/5
f 16/11/6 26/12/6 18/13/6
f 11/14/7 21/15/7 19/16/7
f 16/11/8 22/17/8 24/18/8
f 10/19/9 17/20/9 9/21/9
f 2/1/10 1/3/10 11/14/10
f 4/9/11 12/10/11 3/2/11
f 13/22/12 1/3/12 5/4/12
f 3/2/13 14/23/13 6/5/13
f 8/7/14 18/13/14 10/24/14
f 6/5/15 16/11/15 8/7/15
f 15/25/16 5/4/16 7/6/16
f 17/26/17 7/6/17 9/8/17
f 20/27/18 21/15/18 22/17/18
f 21/15/19 24/18/19 22/17/19
f 24/18/20 25/28/20 26/12/20
f 12/10/21 20/27/21 19/16/21
f 18/29/21 25/30/21 17/20/21
f 15/25/22 21/15/22 13/22/22
f 12/10/23 22/17/23 14/23/23
f 15/25/24 25/28/24 23/31/24
f 19/16/25 2/1/25 11/14/25
f 4/9/26 20/27/26 12/10/26
f 19/16/27 20/27/27 4/9/27
f 28/32/21 29/33/21 27/32/21
f 35/34/28 34/35/28 33/36/28
f 34/35/29 31/37/29 33/36/29
f 38/38/30 27/32/30 37/38/30
f 33/36/19 37/38/19 35/34/19
f 30/33/31 38/38/31 36/34/31
f 36/34/32 32/39/32 34/35/32
f 35/34/33 27/32/33 29/33/33
f 32/39/34 37/38/34 31/37/34
f 30/33/35 35/34/35 29/33/35
f 40/40/21 41/41/21 39/42/21
f 47/43/36 46/44/36 45/45/36
f 46/44/37 43/46/37 45/45/37
f 50/47/38 39/42/38 49/48/38
f 45/45/39 49/48/39 47/43/39
f 42/49/40 50/47/40 48/50/40
f 48/50/41 44/51/41 46/44/41
f 47/43/42 39/42/42 41/41/42
f 44/51/43 49/48/43 43/46/43
f 41/41/44 48/50/44 47/43/44
f 52/52/21 51/53/21 53/54/21
f 59/55/45 57/56/45 58/57/45
f 58/57/46 57/56/46 55/58/46
f 62/59/47 61/60/47 51/53/47
f 57/56/48 59/55/48 61/60/48
f 60/61/49 62/59/49 52/52/49
f 60/61/50 58/57/50 56/62/50
f 59/55/51 53/54/51 51/53/51
f 56/62/52 55/58/52 61/60/52
f 53/54/53 59/55/53 60/61/53
f 2/1/1 4/9/1 3/2/1
f 3/2/2 6/5/2 5/4/2
f 6/5/3 8/7/3 7/6/3
f 8/7/4 10/24/4 9/8/4
f 2/1/5 12/10/5 11/14/5
f 16/11/54 24/18/54 26/12/54
f 11/14/55 13/22/55 21/15/55
f 16/11/56 14/23/56 22/17/56
f 10/19/9 18/29/9 17/20/9
f 13/22/57 11/14/57 1/3/57
f 3/2/58 12/10/58 14/23/58
f 8/7/59 16/11/59 18/13/59
f 6/5/60 14/23/60 16/11/60
f 15/25/61 13/22/61 5/4/61
f 17/26/62 15/25/62 7/6/62
f 20/27/18 19/16/18 21/15/18
f 21/15/19 23/31/19 24/18/19
f 24/18/20 23/31/20 25/28/20
f 12/10/21 19/16/21 11/14/21
f 18/29/21 26/63/21 25/30/21
f 15/25/63 23/31/63 21/15/63
f 12/10/64 20/27/64 22/17/64
f 15/25/65 17/26/65 25/28/65
f 19/16/27 4/9/27 2/1/27
f 28/32/21 30/33/21 29/33/21
f 35/34/28 36/34/28 34/35/28
f 34/35/29 32/39/29 31/37/29
f 38/38/30 28/32/30 27/32/30
f 33/36/19 31/37/19 37/38/19
f 30/33/31 28/32/31 38/38/31
f 36/34/32 38/38/32 32/39/32
f 35/34/33 37/38/33 27/32/33
f 32/39/34 38/38/34 37/38/34
f 30/33/35 36/34/35 35/34/35
f 40/40/21 42/49/21 41/41/21
f 47/43/36 48/50/36 46/44/36
f 46/44/37 44/51/37 43/46/37
f 50/47/38 40/40/38 39/42/38
f 45/45/39 43/46/39 49/48/39
f 42/49/40 40/40/40 50/47/40
f 48/50/41 50/47/41 44/51/41
f 47/43/42 49/48/42 39/42/42
f 44/51/43 50/47/43 49/48/43
f 41/41/44 42/49/44 48/50/44
f 52/52/21 53/54/21 54/64/21
f 59/55/45 58/57/45 60/61/45
f 58/57/46 55/58/46 56/62/46
f 62/59/47 51/53/47 52/52/47
f 57/56/48 61/60/48 55/58/48
f 60/61/49 52/52/49 54/64/49
f 60/61/50 56/62/50 62/59/50
f 59/55/51 51/53/51 61/60/51
f 56/62/52 61/60/52 62/59/52
f 53/54/53 60/61/53 54/64/53
